With: Tom Hanks, Mare Winningham and Craig T. Nelson

Agent Scott Turner heeft nog drie dagen te gaan voor hij naar de grote stad overgeplaatst zal worden voor het "echte" werk. Wanneer Amos Reed vermoord wordt stort Scott zich op de zaak. De enige getuige is Reed's hond Hooch. Scott moet de zorg voor de hond op zich nemen om te voorkomen dat ze de hond laten inslapen.

A detective must adopt the dog of a dead man to help him find the murderer. 

------------------ Dutch Friends ------------------
You can find my Friends at: http://www.Film-Test.nl 
------ They got my dutchs subs ---- and more ------

General:

Complete name                    : Turner & Hooch\Turner and Hooch.avi
Format                           : AVI
Format/Info                      : Audio Video Interleave
File size                        : 1.45 GiB
Duration                         : 1h 35mn
Overall bit rate                 : 2 175 Kbps

Video:

Format                           : MPEG-4 Visual
Format profile                   : Simple@L3
Format settings, BVOP            : No
Format settings, QPel            : No
Format settings, GMC             : No warppoints
Format settings, Matrix          : Default (H.263)
Codec ID                         : XVID
Codec ID/Hint                    : XviD
Duration                         : 1h 35mn
Bit rate                         : 1 780 Kbps
Width                            : 652 pixels
Height                           : 352 pixels
Display aspect ratio             : 1.852
Frame rate                       : 25.000 fps
Color space                      : YUV
Chroma subsampling               : 4:2:0
Bit depth                        : 8 bits
Scan type                        : Progressive
Bits/(Pixel*Frame)               : 0.310
Stream size                      : 1.19 GiB (82%)
Writing library                  : XviD 1.1.2 (UTC 2006-11-01)

Audio:

Format                           : AC-3
Format/Info                      : Audio Coding 3
Mode extension                   : CM (complete main)
Codec ID                         : 2000
Duration                         : 1h 35mn
Bit rate mode                    : Constant
Bit rate                         : 384 Kbps
Channel(s)                       : 6 channels
Channel positions                : Front: L C R, Side: L R, LFE
Sampling rate                    : 48.0 KHz
Bit depth                        : 16 bits
Stream size                      : 262 MiB (18%)
Alignment                        : Aligned on interleaves
Interleave, duration             : 32 ms (0.80 video frame)
Interleave, preload duration     : 160 ms

